<svg width="24" height="24" viewBox="0 0 24 24" xmlns="http://www.w3.org/2000/svg">
  <path fill="#000000" d="M17.05,12.536c-0.031-3.009,2.458-4.45,2.569-4.518c-1.399-2.046-3.575-2.327-4.35-2.36c-1.851-0.188-3.614,1.089-4.55,1.089c-0.936,0-2.384-1.062-3.917-1.034c-2.016,0.03-3.875,1.172-4.917,2.976c-2.095,3.636-0.536,9.016,1.507,11.963c0.998,1.442,2.188,3.063,3.748,3.006c1.504-0.06,2.073-0.973,3.892-0.973c1.819,0,2.331,0.973,3.921,0.943c1.619-0.03,2.644-1.472,3.636-2.919c1.146-1.676,1.618-3.299,1.647-3.384C20.215,17.309,17.083,16.076,17.05,12.536z M14.615,4.461c0.829-1.005,1.387-2.399,1.235-3.784c-1.193,0.048-2.637,0.794-3.493,1.799c-0.768,0.889-1.438,2.308-1.257,3.672C12.389,6.227,13.786,5.466,14.615,4.461z"/>
</svg>