<svg width="24" height="24" viewBox="0 0 24 24" xmlns="http://www.w3.org/2000/svg">
  <path fill="#4285F4" d="M21.35 12.04c0-.79-.07-1.54-.19-2.27H12v4.51h5.24c-.23 1.13-.9 2.09-1.91 2.73v2.27h3.09c1.81-1.67 2.85-4.13 2.85-7.24z"/>
  <path fill="#34A853" d="M12 22c2.58 0 4.74-.84 6.32-2.27l-3.09-2.27c-.86.57-1.96.91-3.23.91-2.48 0-4.58-1.67-5.33-3.92H3.5v2.34C5.07 19.97 8.3 22 12 22z"/>
  <path fill="#FBBC05" d="M6.67 14.45c-.19-.57-.3-1.18-.3-1.81 0-.63.11-1.24.3-1.81V8.49H3.5c-.77 1.51-1.2 3.22-1.2 5.01s.43 3.5 1.2 5.01l3.17-2.06z"/>
  <path fill="#EA4335" d="M12 6.36c1.4 0 2.66.48 3.65 1.43l2.74-2.74C16.74 3.46 14.58 2.62 12 2.62 8.3 2.62 5.07 4.65 3.5 7.83l3.17 2.06c.75-2.25 2.85-3.92 5.33-3.92z"/>
</svg>